<svg xmlns="http://www.w3.org/2000/svg">
  <defs>

    <symbol id="icon-add" viewBox="0 0 16 16">
      <path
        d="M8 14C7.80741 14 7.6483 13.9372 7.52267 13.8116C7.39644 13.6853 7.33333 13.5259 7.33333 13.3333V8.66667H2.66667C2.47407 8.66667 2.31496 8.60356 2.18933 8.47733C2.06311 8.3517 2 8.19259 2 8C2 7.80741 2.06311 7.648 2.18933 7.52178C2.31496 7.39615 2.47407 7.33333 2.66667 7.33333H7.33333V2.66667C7.33333 2.47407 7.39644 2.31496 7.52267 2.18933C7.6483 2.06311 7.80741 2 8 2C8.19259 2 8.352 2.06311 8.47822 2.18933C8.60385 2.31496 8.66667 2.47407 8.66667 2.66667V7.33333H13.3333C13.5259 7.33333 13.6853 7.39615 13.8116 7.52178C13.9372 7.648 14 7.80741 14 8C14 8.19259 13.9372 8.3517 13.8116 8.47733C13.6853 8.60356 13.5259 8.66667 13.3333 8.66667H8.66667V13.3333C8.66667 13.5259 8.60385 13.6853 8.47822 13.8116C8.352 13.9372 8.19259 14 8 14Z"
        fill="currentColor"
      />
    </symbol>

    <symbol id="icon-check" viewBox="0 0 16 16">
      <path
        d="M13.7803 5.41918C14.0732 5.13274 14.0732 4.66833 13.7803 4.38189C13.4874 4.09544 13.0126 4.09544 12.7197 4.38189L6.5 10.4646L3.28033 7.31579C2.98744 7.02935 2.51256 7.02935 2.21967 7.31579C1.92678 7.60223 1.92678 8.06664 2.21967 8.35308L5.96967 12.0204C6.26256 12.3069 6.73744 12.3069 7.03033 12.0204L13.7803 5.41918Z"
        fill="currentColor"
      />
    </symbol>

    <symbol id="icon-chevron-down" viewBox="0 0 16 16">
      <path
        d="M3.76971 5.6723C3.91821 5.52378 4.07846 5.44952 4.25046 5.44952C4.42246 5.44952 4.58271 5.52378 4.73121 5.6723L8.00046 8.94152L11.2697 5.6723C11.4182 5.52378 11.5785 5.44952 11.7505 5.44952C11.9225 5.44952 12.0827 5.52378 12.2312 5.6723C12.3797 5.8208 12.454 5.98105 12.454 6.15305C12.454 6.32505 12.3797 6.48529 12.2312 6.63379L8.56935 10.2956C8.47748 10.3875 8.3848 10.453 8.29131 10.492C8.19784 10.531 8.10089 10.5505 8.00046 10.5505C7.90003 10.5505 7.80308 10.531 7.7096 10.492C7.61612 10.453 7.52344 10.3875 7.43156 10.2956L3.76971 6.63379C3.62119 6.48529 3.54694 6.32505 3.54694 6.15305C3.54694 5.98105 3.62119 5.8208 3.76971 5.6723Z"
        fill="currentColor"
      />
    </symbol>

    <symbol id="icon-chevron-right" viewBox="0 0 16 16">
      <path
        d="M5.67272 12.2307C5.52421 12.0822 5.44995 11.922 5.44995 11.75C5.44995 11.578 5.52421 11.4177 5.67272 11.2692L8.94195 8L5.67272 4.73075C5.52421 4.58225 5.44995 4.422 5.44995 4.25C5.44995 4.078 5.52421 3.91775 5.67272 3.76925C5.82122 3.62074 5.98147 3.54648 6.15347 3.54648C6.32547 3.54648 6.48572 3.62074 6.63422 3.76925L10.2961 7.4311C10.388 7.52298 10.4534 7.61566 10.4924 7.70915C10.5314 7.80262 10.5509 7.89957 10.5509 8C10.5509 8.10043 10.5314 8.19738 10.4924 8.29085C10.4534 8.38434 10.388 8.47702 10.2961 8.5689L6.63422 12.2307C6.48572 12.3793 6.32547 12.4535 6.15347 12.4535C5.98147 12.4535 5.82122 12.3793 5.67272 12.2307Z"
        fill="currentColor"
      />
    </symbol>

    <symbol id="icon-circle-info" viewBox="0 0 16 16">
      <path
        d="M7.99992 11.9585C8.17709 11.9585 8.33245 11.8916 8.46599 11.758C8.59953 11.6243 8.6663 11.4713 8.6663 11.2991V7.80537C8.6663 7.6382 8.59944 7.48998 8.46572 7.3607C8.33198 7.23144 8.17654 7.16681 7.99938 7.16681C7.82222 7.16681 7.66686 7.23365 7.53332 7.36733C7.39978 7.50101 7.33301 7.65397 7.33301 7.8262V11.3199C7.33301 11.4871 7.39987 11.6353 7.53359 11.7646C7.66733 11.8938 7.82277 11.9585 7.99992 11.9585ZM7.99965 5.7197C8.19036 5.7197 8.35716 5.64826 8.50005 5.50537C8.64294 5.36248 8.71438 5.19568 8.71438 5.00498C8.71438 4.81428 8.64294 4.64748 8.50005 4.50458C8.35716 4.36169 8.19036 4.29025 7.99965 4.29025C7.80895 4.29025 7.64215 4.36169 7.49926 4.50458C7.35637 4.64748 7.28492 4.81428 7.28492 5.00498C7.28492 5.19568 7.35637 5.36248 7.49926 5.50537C7.64215 5.64826 7.80895 5.7197 7.99965 5.7197ZM7.99965 15.9168C6.90029 15.9168 5.86905 15.7101 4.90592 15.2966C3.94279 14.8831 3.10491 14.3201 2.3923 13.6075C1.6797 12.8949 1.11667 12.057 0.703216 11.0939C0.289744 10.1307 0.0830078 9.0995 0.0830078 8.00014C0.0830078 6.90078 0.289744 5.86954 0.703216 4.90641C1.11667 3.94327 1.6797 3.1054 2.3923 2.39279C3.10491 1.68019 3.94279 1.11716 4.90592 0.703704C5.86905 0.290232 6.90029 0.0834961 7.99965 0.0834961C9.09902 0.0834961 10.1303 0.290232 11.0934 0.703704C12.0565 1.11716 12.8944 1.68019 13.607 2.39279C14.3196 3.1054 14.8826 3.94327 15.2961 4.90641C15.7096 5.86954 15.9163 6.90078 15.9163 8.00014C15.9163 9.0995 15.7096 10.1307 15.2961 11.0939C14.8826 12.057 14.3196 12.8949 13.607 13.6075C12.8944 14.3201 12.0565 14.8831 11.0934 15.2966C10.1303 15.7101 9.09902 15.9168 7.99965 15.9168ZM7.9947 14.5835C9.81744 14.5835 11.3712 13.9428 12.6559 12.6613C13.9406 11.3799 14.583 9.82786 14.583 8.0051C14.583 6.18235 13.9423 4.62861 12.6609 3.34389C11.3795 2.05917 9.82738 1.41681 8.00461 1.41681C6.18186 1.41681 4.62813 2.05752 3.3434 3.33893C2.05868 4.62034 1.41632 6.17242 1.41632 7.99518C1.41632 9.81793 2.05703 11.3717 3.33845 12.6564C4.61985 13.9411 6.17193 14.5835 7.9947 14.5835Z"
        fill="currentColor"
      />
    </symbol>

    <symbol id="icon-copy" viewBox="0 0 16 16">
      <path
        fill-rule="evenodd"
        clip-rule="evenodd"
        d="M12.2 2.4H6.6C5.8268 2.4 5.2 3.0268 5.2 3.8V9.4C5.2 10.1732 5.8268 10.8 6.6 10.8H12.2C12.9732 10.8 13.6 10.1732 13.6 9.4V3.8C13.6 3.0268 12.9732 2.4 12.2 2.4ZM6.6 1C5.0536 1 3.8 2.2536 3.8 3.8V9.4C3.8 10.9464 5.0536 12.2 6.6 12.2H12.2C13.7464 12.2 15 10.9464 15 9.4V3.8C15 2.2536 13.7464 1 12.2 1H6.6Z"
        fill="currentColor"
      />
      <path
        fill-rule="evenodd"
        clip-rule="evenodd"
        d="M1.7 5.9C2.0866 5.9 2.4 6.2134 2.4 6.6V12.06C2.4 12.9105 3.08948 13.6 3.94 13.6H9.4C9.7866 13.6 10.1 13.9134 10.1 14.3C10.1 14.6866 9.7866 15 9.4 15H3.94C2.31628 15 1 13.6837 1 12.06V6.6C1 6.2134 1.3134 5.9 1.7 5.9Z"
        fill="currentColor"
      />
    </symbol>

    <symbol id="icon-database" viewBox="0 0 16 16">
      <path
        d="M8 6.56824C5.66078 6.56824 3.74283 6.26196 2.24617 5.64941C0.748724 5.03608 0 4.24745 0 3.28353C0 2.38471 0.785238 1.61255 2.35571 0.967059C3.92619 0.322353 5.80762 0 8 0C10.1924 0 12.0738 0.322353 13.6443 0.967059C15.2148 1.61255 16 2.38471 16 3.28353C16 4.24745 15.2513 5.03608 13.7538 5.64941C12.2572 6.26196 10.3392 6.56824 8 6.56824ZM8 10.7835C5.72595 10.7835 3.82411 10.469 2.29446 9.84C0.764822 9.21098 0 8.43059 0 7.49882V6.12706C0.131135 6.42118 0.396938 6.73176 0.797409 7.05882C1.19867 7.3851 1.73066 7.68706 2.3934 7.96471C3.05536 8.24235 3.85669 8.47137 4.79741 8.65177C5.73812 8.83137 6.80565 8.92118 8 8.92118C9.19435 8.92118 10.2619 8.83137 11.2026 8.65177C12.1433 8.47137 12.9446 8.24235 13.6066 7.96471C14.2693 7.68706 14.8013 7.3851 15.2026 7.05882C15.6031 6.73176 15.8689 6.42118 16 6.12706V7.49882C16 8.43059 15.2352 9.21098 13.7055 9.84C12.1759 10.469 10.274 10.7835 8 10.7835ZM8 15C5.77542 15 3.88614 14.669 2.33216 14.0071C0.777385 13.3451 0 12.5404 0 11.5929V10.22C0.131135 10.5141 0.401256 10.8329 0.810365 11.1765C1.21947 11.5192 1.75932 11.8376 2.42992 12.1318C3.10051 12.4259 3.90616 12.6671 4.84688 12.8553C5.78759 13.0427 6.83863 13.1365 8 13.1365C9.16137 13.1365 10.2124 13.0427 11.1531 12.8553C12.0938 12.6671 12.8995 12.4259 13.5701 12.1318C14.2407 11.8376 14.7805 11.5192 15.1896 11.1765C15.5987 10.8329 15.8689 10.5141 16 10.22V11.5929C16 12.5404 15.2226 13.3451 13.6678 14.0071C12.1139 14.669 10.2246 15 8 15Z"
        fill="currentColor"
      />
    </symbol>

    <symbol id="icon-ellipsis-horizontal" viewBox="0 0 16 16">
      <path
        d="M12 9.33333C11.2636 9.33333 10.6667 8.73638 10.6667 8C10.6667 7.26362 11.2636 6.66666 12 6.66666C12.7364 6.66666 13.3334 7.26362 13.3334 8C13.3334 8.35362 13.1929 8.69276 12.9428 8.94281C12.6928 9.19285 12.3536 9.33333 12 9.33333ZM8.00002 9.33333C7.26364 9.33333 6.66669 8.73638 6.66669 8C6.66669 7.26362 7.26364 6.66666 8.00002 6.66666C8.7364 6.66666 9.33335 7.26362 9.33335 8C9.33335 8.35362 9.19288 8.69276 8.94283 8.94281C8.69278 9.19285 8.35364 9.33333 8.00002 9.33333ZM4.00002 9.33333C3.26364 9.33333 2.66669 8.73638 2.66669 8C2.66669 7.26362 3.26364 6.66666 4.00002 6.66666C4.7364 6.66666 5.33335 7.26362 5.33335 8C5.33335 8.35362 5.19288 8.69276 4.94283 8.94281C4.69278 9.19285 4.35364 9.33333 4.00002 9.33333Z"
        fill="currentColor"
      />
    </symbol>

    <symbol id="icon-ellipsis-vertical" viewBox="0 0 16 16">
      <path
        d="M7.50528 15C7.08089 15 6.72368 14.8504 6.43365 14.5511C6.14455 14.2518 6 13.8992 6 13.4933C6 13.0689 6.14965 12.7122 6.44894 12.4231C6.74731 12.1331 7.09943 11.988 7.50528 11.988C7.92967 11.988 8.28688 12.1331 8.57691 12.4231C8.86601 12.7122 9.01056 13.0689 9.01056 13.4933C9.01056 13.9186 8.86092 14.2759 8.56162 14.565C8.26325 14.855 7.91114 15 7.50528 15ZM7.50528 9.00528C7.08089 9.00528 6.72368 8.85563 6.43365 8.55634C6.14455 8.25797 6 7.90586 6 7.5C6 7.07561 6.14965 6.7184 6.44894 6.42837C6.74731 6.13927 7.09943 5.99472 7.50528 5.99472C7.92967 5.99472 8.28688 6.14437 8.57691 6.44366C8.86601 6.74203 9.01056 7.09414 9.01056 7.5C9.01056 7.92439 8.86092 8.2816 8.56162 8.57163C8.26325 8.86073 7.91114 9.00528 7.50528 9.00528ZM7.50528 3.01195C7.08089 3.01195 6.72368 2.86694 6.43365 2.57691C6.14455 2.28781 6 1.93106 6 1.50667C6 1.08136 6.14965 0.724147 6.44894 0.435044C6.74731 0.145014 7.09943 0 7.50528 0C7.92967 0 8.28688 0.149648 8.57691 0.448944C8.86601 0.748239 9.01056 1.10082 9.01056 1.50667C9.01056 1.93106 8.86092 2.28781 8.56162 2.57691C8.26325 2.86694 7.91114 3.01195 7.50528 3.01195Z"
        fill="currentColor"
      />
    </symbol>

    <symbol id="icon-file" viewBox="0 0 16 16">
      <path
        fill-rule="evenodd"
        clip-rule="evenodd"
        d="M14.2913 4.363C14.211 4.21903 14.1174 4.08188 14.0113 3.95345L11.5521 0.981818C11.3946 0.790949 11.2124 0.623232 11.0109 0.48288C11.0169 0.489437 11.0225 0.495418 11.0278 0.50075V0.79936V3.45391C11.0282 3.69489 11.1234 3.9259 11.2926 4.09631C11.4619 4.26671 11.6913 4.36262 11.9306 4.363H14.2913ZM9.96044 0.044382C9.80075 0.014971 9.63829 3.15202e-05 9.475 0H4.70833C3.99027 0.000770055 3.30184 0.288354 2.7941 0.79965C2.28635 1.31095 2.00076 2.00419 2 2.72727V12.9091C2.00076 13.6322 2.28635 14.3254 2.7941 14.8367C3.30184 15.348 3.99027 15.6356 4.70833 15.6364H11.9306C12.6486 15.6356 13.337 15.348 13.8448 14.8367C14.3525 14.3254 14.6381 13.6322 14.6389 12.9091V5.69891C14.6388 5.61683 14.6351 5.53509 14.6278 5.45391H11.9306C11.404 5.45333 10.8992 5.24243 10.5268 4.86749C10.1545 4.49254 9.94503 3.98416 9.94446 3.45391V0.79936V0.059304C9.94957 0.05416 9.95489 0.049184 9.96044 0.044382Z"
        fill="currentColor"
      />
    </symbol>

    <symbol id="icon-file-lines" viewBox="0 0 16 16">
      <path
        d="M11.9306 15.6364H4.70833C3.99027 15.6356 3.30184 15.348 2.7941 14.8367C2.28635 14.3254 2.00076 13.6322 2 12.9091V2.72727C2.00076 2.00419 2.28635 1.31095 2.7941 0.79965C3.30184 0.288354 3.99027 0.000770055 4.70833 0H9.475C9.87157 7.65508e-05 10.2632 0.0880831 10.6222 0.257769C10.9812 0.427455 11.2987 0.674657 11.5521 0.981818L14.0113 3.95345C14.4164 4.44366 14.6384 5.06115 14.6389 5.69891V12.9091C14.6381 13.6322 14.3525 14.3254 13.8448 14.8367C13.337 15.348 12.6486 15.6356 11.9306 15.6364ZM4.70833 1.09091C4.27747 1.09129 3.86437 1.26382 3.55971 1.57061C3.25504 1.87741 3.08372 2.2934 3.08333 2.72727V12.9091C3.08372 13.343 3.25504 13.759 3.55971 14.0658C3.86437 14.3725 4.27747 14.5451 4.70833 14.5455H11.9306C12.3614 14.5451 12.7745 14.3725 13.0792 14.0658C13.3838 13.759 13.5552 13.343 13.5556 12.9091V5.69891C13.5553 5.3163 13.4222 4.94581 13.1793 4.65164L10.7194 1.68C10.5677 1.49579 10.3775 1.34751 10.1624 1.2457C9.94737 1.14388 9.71266 1.09103 9.475 1.09091H4.70833Z"
        fill="currentColor"
      />
      <path
        d="M11.2083 8.36364H5.43056C5.2869 8.36364 5.14912 8.30617 5.04754 8.20388C4.94596 8.10158 4.88889 7.96285 4.88889 7.81818C4.88889 7.67352 4.94596 7.53478 5.04754 7.43249C5.14912 7.3302 5.2869 7.27273 5.43056 7.27273H11.2083C11.352 7.27273 11.4898 7.3302 11.5913 7.43249C11.6929 7.53478 11.75 7.67352 11.75 7.81818C11.75 7.96285 11.6929 8.10158 11.5913 8.20388C11.4898 8.30617 11.352 8.36364 11.2083 8.36364Z"
        fill="currentColor"
      />
      <path
        d="M9.76389 11.2727H5.43056C5.2869 11.2727 5.14912 11.2153 5.04754 11.113C4.94596 11.0107 4.88889 10.8719 4.88889 10.7273C4.88889 10.5826 4.94596 10.4439 5.04754 10.3416C5.14912 10.2393 5.2869 10.1818 5.43056 10.1818H9.76389C9.90755 10.1818 10.0453 10.2393 10.1469 10.3416C10.2485 10.4439 10.3056 10.5826 10.3056 10.7273C10.3056 10.8719 10.2485 11.0107 10.1469 11.113C10.0453 11.2153 9.90755 11.2727 9.76389 11.2727Z"
        fill="currentColor"
      />
      <path
        d="M13.9528 5.45455H11.9306C11.404 5.45397 10.8991 5.24307 10.5268 4.86812C10.1545 4.49317 9.94502 3.9848 9.94444 3.45455V0.8C9.94444 0.655336 10.0015 0.516598 10.1031 0.414305C10.2047 0.312013 10.3425 0.254546 10.4861 0.254546C10.6298 0.254546 10.7675 0.312013 10.8691 0.414305C10.9707 0.516598 11.0278 0.655336 11.0278 0.8V3.45455C11.0282 3.69553 11.1234 3.92654 11.2926 4.09695C11.4618 4.26735 11.6912 4.36325 11.9306 4.36364H13.9528C14.0964 4.36364 14.2342 4.4211 14.3358 4.5234C14.4374 4.62569 14.4944 4.76443 14.4944 4.90909C14.4944 5.05375 14.4374 5.19249 14.3358 5.29479C14.2342 5.39708 14.0964 5.45455 13.9528 5.45455Z"
        fill="currentColor"
      />
    </symbol>

    <symbol id="icon-file-plus" viewBox="0 0 16 16">
      <path
        d="M11.9306 15.6364H4.70833C3.99027 15.6356 3.30184 15.348 2.7941 14.8367C2.28635 14.3254 2.00076 13.6322 2 12.9091V2.72727C2.00076 2.00419 2.28635 1.31095 2.7941 0.79965C3.30184 0.288354 3.99027 0.000770055 4.70833 0H9.475C9.87157 7.65508e-05 10.2632 0.0880831 10.6222 0.257769C10.9812 0.427455 11.2987 0.674657 11.5521 0.981818L14.0113 3.95345C14.4164 4.44366 14.6384 5.06115 14.6389 5.69891V12.9091C14.6381 13.6322 14.3525 14.3254 13.8448 14.8367C13.337 15.348 12.6486 15.6356 11.9306 15.6364ZM4.70833 1.09091C4.27747 1.09129 3.86437 1.26382 3.55971 1.57061C3.25504 1.87741 3.08372 2.2934 3.08333 2.72727V12.9091C3.08372 13.343 3.25504 13.759 3.55971 14.0658C3.86437 14.3725 4.27747 14.5451 4.70833 14.5455H11.9306C12.3614 14.5451 12.7745 14.3725 13.0792 14.0658C13.3838 13.759 13.5552 13.343 13.5556 12.9091V5.69891C13.5553 5.3163 13.4222 4.94581 13.1793 4.65164L10.7194 1.68C10.5677 1.4958 10.3775 1.34751 10.1624 1.2457C9.94737 1.14388 9.71266 1.09103 9.475 1.09091H4.70833Z"
        fill="currentColor"
      />
      <path
        d="M13.9528 5.45455H11.9306C11.404 5.45397 10.8991 5.24307 10.5268 4.86812C10.1545 4.49317 9.94502 3.9848 9.94444 3.45455V0.8C9.94444 0.655336 10.0015 0.516598 10.1031 0.414305C10.2047 0.312013 10.3425 0.254545 10.4861 0.254545C10.6298 0.254545 10.7675 0.312013 10.8691 0.414305C10.9707 0.516598 11.0278 0.655336 11.0278 0.8V3.45455C11.0282 3.69553 11.1234 3.92654 11.2926 4.09695C11.4618 4.26735 11.6912 4.36325 11.9306 4.36364H13.9528C14.0964 4.36364 14.2342 4.4211 14.3358 4.5234C14.4374 4.62569 14.4944 4.76443 14.4944 4.90909C14.4944 5.05375 14.4374 5.19249 14.3358 5.29479C14.2342 5.39708 14.0964 5.45455 13.9528 5.45455Z"
        fill="currentColor"
      />
      <path
        d="M10.8263 10.04H5.77367C5.64804 10.04 5.52756 9.98307 5.43873 9.8818C5.34989 9.78053 5.29999 9.64318 5.29999 9.49996C5.29999 9.35674 5.34989 9.21939 5.43873 9.11812C5.52756 9.01685 5.64804 8.95996 5.77367 8.95996H10.8263C10.9519 8.95996 11.0724 9.01685 11.1612 9.11812C11.2501 9.21939 11.3 9.35674 11.3 9.49996C11.3 9.64318 11.2501 9.78053 11.1612 9.8818C11.0724 9.98307 10.9519 10.04 10.8263 10.04Z"
        fill="currentColor"
      />
      <path
        d="M7.75999 7.04C7.75999 6.74177 8.00175 6.5 8.29999 6.5C8.59822 6.5 8.83999 6.74177 8.83999 7.04V11.96C8.83999 12.2582 8.59822 12.5 8.29999 12.5C8.00175 12.5 7.75999 12.2582 7.75999 11.96V7.04Z"
        fill="currentColor"
      />
    </symbol>

    <symbol id="icon-floppy-disk" viewBox="0 0 16 16">
      <path
        fill-rule="evenodd"
        clip-rule="evenodd"
        d="M10.8144 1.68411C10.7199 1.65812 10.6121 1.65389 10.2077 1.65389H3.83603C3.42506 1.65389 3.14913 1.65434 2.93663 1.67294C2.73037 1.69099 2.63176 1.72321 2.56677 1.75869C2.39805 1.8508 2.26085 1.99784 2.17474 2.17891C2.14161 2.24858 2.11154 2.35418 2.0947 2.57504C2.07734 2.80263 2.07692 3.09818 2.07692 3.53851V12.4615C2.07692 12.9019 2.07734 13.1974 2.0947 13.425C2.11154 13.6459 2.14161 13.7515 2.17474 13.8212C2.26084 14.0022 2.39802 14.1492 2.56677 14.2413C2.63177 14.2768 2.73038 14.309 2.93664 14.3271C3.14914 14.3457 3.42507 14.3462 3.83603 14.3462H3.87179V11.9766C3.87178 11.5657 3.87178 11.2228 3.89314 10.9426C3.91543 10.6504 3.96361 10.376 4.08698 10.1166C4.2762 9.71871 4.57801 9.39502 4.94965 9.1921C5.19182 9.05994 5.44798 9.00833 5.72075 8.9844C5.98232 8.96156 6.30248 8.96156 6.686 8.96156H9.31427C9.6978 8.96156 10.0178 8.96156 10.2793 8.9844C10.5519 9.00833 10.8079 9.05994 11.0501 9.1921C11.4213 9.39479 11.7238 9.71833 11.9132 10.1166C12.0366 10.3761 12.0847 10.6505 12.1069 10.9427C12.1282 11.2223 12.1282 11.5646 12.1282 11.9745V14.3462H12.1642C12.5752 14.3462 12.851 14.3457 13.0633 14.3271C13.2693 14.3091 13.3679 14.2769 13.4329 14.2413C13.602 14.149 13.7395 14.0018 13.8254 13.8212C13.8585 13.7515 13.8885 13.646 13.9053 13.4251C13.9227 13.1975 13.9231 12.9019 13.9231 12.4615V5.86769C13.9231 5.49344 13.9199 5.39303 13.9013 5.30377C13.882 5.21126 13.8505 5.12301 13.8077 5.04159C13.7658 4.96196 13.7056 4.8854 13.4717 4.60696L11.5151 2.27777C11.2448 1.95597 11.1693 1.87252 11.088 1.81464C11.0043 1.75507 10.9118 1.71092 10.8144 1.68411ZM11.5927 15.5H12.1858C12.5694 15.5 12.8896 15.5 13.1511 15.4771C13.4237 15.4532 13.6798 15.4015 13.9218 15.2694C14.2931 15.0667 14.5955 14.7432 14.785 14.345C14.9084 14.0855 14.9565 13.8111 14.9787 13.5189C15 13.2392 15 12.8969 15 12.487V5.86769C15 5.85113 15 5.83476 15 5.81858C15.0001 5.51786 15.0002 5.28192 14.9523 5.05214C14.9103 4.85072 14.8411 4.65631 14.746 4.47532C14.6384 4.27056 14.4912 4.09552 14.304 3.87301C14.2935 3.86052 14.2829 3.84788 14.2721 3.83508L12.3156 1.50589C12.3034 1.49136 12.2914 1.47699 12.2795 1.46278C12.0633 1.20514 11.8935 1.0028 11.6841 0.853684C11.4999 0.722516 11.2964 0.625462 11.0823 0.566539C10.8392 0.499639 10.5858 0.499809 10.2637 0.500024C10.2452 0.500039 10.2266 0.500047 10.2077 0.500047H3.8142C3.43069 0.500039 3.11052 0.500032 2.84896 0.522924C2.57619 0.546793 2.32003 0.598408 2.07786 0.730608C1.70622 0.933492 1.40441 1.2572 1.21519 1.65508C1.09182 1.91451 1.04364 2.18886 1.02135 2.48108C0.999986 2.76126 0.999993 3.10421 1 3.5151V12.4849C0.999993 12.8959 0.999986 13.2388 1.02135 13.519C1.04364 13.8112 1.09182 14.0855 1.21519 14.345C1.40442 14.7428 1.70625 15.0665 2.07786 15.2694C2.32002 15.4016 2.57617 15.4532 2.84895 15.4771C3.11059 15.5 3.43086 15.5 3.81452 15.5H11.5897H11.5927ZM11.0513 14.3462V12C11.0513 11.5596 11.0509 11.2641 11.0335 11.0365C11.0167 10.8156 10.9867 10.71 10.9536 10.6404C10.8677 10.4597 10.7302 10.3125 10.5611 10.2202C10.4961 10.1847 10.3976 10.1525 10.1915 10.1345C9.97916 10.1159 9.7034 10.1154 9.29244 10.1154H6.70783C6.29686 10.1154 6.02093 10.1159 5.80841 10.1345C5.60215 10.1525 5.50354 10.1847 5.43856 10.2202C5.26984 10.3123 5.13264 10.4593 5.04653 10.6404C5.0134 10.7101 4.98333 10.8157 4.96649 11.0366C4.94913 11.2642 4.94871 11.5597 4.94871 12V14.3462H11.0513ZM5.30769 4.15388C5.30769 3.83526 5.54876 3.57696 5.84615 3.57696H10.1538C10.4512 3.57696 10.6923 3.83526 10.6923 4.15388C10.6923 4.4725 10.4512 4.7308 10.1538 4.7308H5.84615C5.54876 4.7308 5.30769 4.4725 5.30769 4.15388Z"
        fill="currentColor"
      />
    </symbol>

    <symbol id="icon-folder" viewBox="0 0 16 16">
      <path
        d="M13.0907 14.8251H2.90891C2.18583 14.8243 1.49259 14.5475 0.981291 14.0554C0.469995 13.5633 0.182411 12.896 0.181641 12.2001V3.80006C0.182411 3.10409 0.469995 2.43684 0.981291 1.94472C1.49259 1.4526 2.18583 1.1758 2.90891 1.17506H4.914C5.27244 1.17414 5.6275 1.24173 5.95859 1.37391C6.28967 1.50609 6.5902 1.70022 6.84273 1.94506L7.746 2.81446C7.89778 2.96114 8.07824 3.07742 8.27697 3.1566C8.47569 3.23577 8.68874 3.27627 8.90382 3.27576H13.0907C13.8137 3.2765 14.5068 3.5532 15.0181 4.04517C15.5294 4.53714 15.817 5.20421 15.818 5.90006V12.2001C15.8172 12.896 15.5297 13.5633 15.0184 14.0554C14.5071 14.5475 13.8138 14.8243 13.0907 14.8251ZM2.90891 2.22506C2.47504 2.22543 2.05905 2.39148 1.75225 2.68677C1.44546 2.98206 1.27293 3.38246 1.27255 3.80006V12.2001C1.27293 12.6177 1.44546 13.0181 1.75225 13.3133C2.05905 13.6086 2.47504 13.7747 2.90891 13.7751H13.0907C13.5246 13.7747 13.9406 13.6086 14.2474 13.3133C14.5542 13.0181 14.7267 12.6177 14.7271 12.2001V5.90006C14.7267 5.48246 14.5542 5.08206 14.2474 4.78677C13.9406 4.49148 13.5246 4.32543 13.0907 4.32506H8.90382C8.54539 4.32598 8.19033 4.25839 7.85924 4.12621C7.52815 3.99403 7.22763 3.79989 6.9751 3.55506L6.07182 2.68636C5.92005 2.53968 5.73959 2.4234 5.54086 2.34422C5.34214 2.26504 5.12908 2.22454 4.914 2.22506H2.90891Z"
        fill="currentColor"
      />
      <path
        d="M12.3635 12.025H10.1817C10.037 12.025 9.89828 11.9697 9.79599 11.8712C9.6937 11.7728 9.63623 11.6392 9.63623 11.5C9.63623 11.3607 9.6937 11.2272 9.79599 11.1287C9.89828 11.0303 10.037 10.975 10.1817 10.975H12.3635C12.5082 10.975 12.6469 11.0303 12.7492 11.1287C12.8515 11.2272 12.909 11.3607 12.909 11.5C12.909 11.6392 12.8515 11.7728 12.7492 11.8712C12.6469 11.9697 12.5082 12.025 12.3635 12.025Z"
        fill="currentColor"
      />
    </symbol>

    <symbol id="icon-folder-open" viewBox="0 0 16 16">
      <path
        d="M12.3636 12.025H10.1818C10.0372 12.025 9.89842 11.9697 9.79613 11.8712C9.69384 11.7728 9.63637 11.6392 9.63637 11.5C9.63637 11.3608 9.69384 11.2272 9.79613 11.1288C9.89842 11.0303 10.0372 10.975 10.1818 10.975H12.3636C12.5083 10.975 12.647 11.0303 12.7493 11.1288C12.8516 11.2272 12.9091 11.3608 12.9091 11.5C12.9091 11.6392 12.8516 11.7728 12.7493 11.8712C12.647 11.9697 12.5083 12.025 12.3636 12.025Z"
        fill="currentColor"
      />
      <path
        fill-rule="evenodd"
        clip-rule="evenodd"
        d="M0.783778 13.8432C0.396648 13.3795 0.182488 12.8005 0.181824 12.2V3.8C0.182594 3.10403 0.470178 2.43678 0.981474 1.94466C1.49277 1.45254 2.18602 1.17574 2.9091 1.175H4.91419C5.27262 1.17408 5.62768 1.24167 5.95877 1.37385C6.28986 1.50603 6.59038 1.70016 6.84292 1.945L7.74619 2.8144C7.89796 2.96107 8.07842 3.07736 8.27715 3.15654C8.47587 3.23571 8.68893 3.27621 8.90401 3.2757H13.0909C13.8139 3.27644 14.507 3.55314 15.0183 4.04511C15.5296 4.53708 15.8172 5.20415 15.8182 5.9L15.7774 6.68164C16.5233 7.34746 16.8875 8.41293 16.5696 9.4745L15.5366 12.9245C15.1944 14.0672 14.1429 14.85 12.95 14.85H2.88691C2.02083 14.85 1.27197 14.4502 0.783778 13.8432ZM1.27273 8.12823L1.33344 7.9255C1.67561 6.78277 2.72711 6 3.91997 6H13.9831C14.2758 6 14.5551 6.04566 14.8155 6.12955L14.7273 5.9C14.7269 5.4824 14.5544 5.082 14.2476 4.78671C13.9408 4.49142 13.5248 4.32537 13.0909 4.325H8.90401C8.54557 4.32592 8.19051 4.25832 7.85942 4.12615C7.52834 3.99397 7.22781 3.79983 6.97528 3.555L6.07201 2.6863C5.92023 2.53962 5.73977 2.42333 5.54104 2.34416C5.34232 2.26498 5.12927 2.22448 4.91419 2.225H2.9091C2.47522 2.22537 2.05923 2.39142 1.75244 2.68671C1.44564 2.982 1.27312 3.38239 1.27273 3.8V8.12823ZM3.91997 7.1H13.9831C15.0545 7.1 15.8232 8.13255 15.5158 9.15896L14.4828 12.609C14.28 13.2861 13.6569 13.75 12.95 13.75H2.88691C1.81548 13.75 1.04681 12.7175 1.35416 11.691L2.38721 8.24104C2.58998 7.56386 3.21309 7.1 3.91997 7.1Z"
        fill="currentColor"
      />
    </symbol>

    <symbol id="icon-gear" viewBox="0 0 16 16">
      <g clip-path="url(#clip-icon-gear)">
        <path
          d="M15.181 6.32042L14.058 6.1299C13.941 5.75221 13.7906 5.3879 13.6068 5.04029L14.2686 4.11445C14.5493 3.72005 14.5059 3.18193 14.1616 2.84101L13.1656 1.84499C12.9784 1.65781 12.7311 1.5542 12.467 1.5542C12.2598 1.5542 12.0626 1.61771 11.8955 1.73803L10.9663 2.39982C10.6053 2.2093 10.2276 2.05221 9.83659 1.93523L9.64941 0.825565C9.5692 0.347606 9.15809 0 8.67344 0H7.26631C6.78166 0 6.37055 0.347606 6.29033 0.825565L6.09648 1.96197C5.72213 2.07895 5.35781 2.2327 5.01021 2.41987L4.09106 1.75809C3.92394 1.63776 3.7234 1.57425 3.51617 1.57425C3.25212 1.57425 3.00145 1.67787 2.81762 1.86504L1.81825 2.86107C1.47733 3.20199 1.43053 3.74011 1.71129 4.13451L2.37977 5.07371C2.19594 5.42466 2.04887 5.78898 1.93523 6.16667L0.825565 6.35384C0.347606 6.43406 0 6.84517 0 7.32981V8.73695C0 9.22159 0.347606 9.6327 0.825565 9.71292L1.96197 9.90678C2.07895 10.2811 2.2327 10.6454 2.41987 10.993L1.76143 11.9089C1.48067 12.3033 1.52412 12.8414 1.86838 13.1823L2.86441 14.1783C3.05158 14.3655 3.29892 14.4691 3.56296 14.4691C3.77019 14.4691 3.96739 14.4056 4.13451 14.2853L5.07371 13.6168C5.41129 13.7939 5.76558 13.9377 6.1299 14.0513L6.31707 15.1743C6.39729 15.6523 6.8084 15.9999 7.29304 15.9999H8.70352C9.18817 15.9999 9.59928 15.6523 9.67949 15.1743L9.87001 14.0513C10.2477 13.9343 10.612 13.7839 10.9596 13.6001L11.8855 14.2619C12.0526 14.3822 12.2531 14.4457 12.4603 14.4457C12.7244 14.4457 12.9717 14.3421 13.1589 14.1549L14.1549 13.1589C14.4958 12.818 14.5426 12.2799 14.2619 11.8855L13.6001 10.9563C13.7839 10.6053 13.9377 10.241 14.0513 9.86667L15.1743 9.67949C15.6523 9.59928 15.9999 9.18817 15.9999 8.70352V7.29639C16.0066 6.81174 15.659 6.40063 15.181 6.32042ZM15.1042 8.70352C15.1042 8.74697 15.0741 8.78374 15.0306 8.79043L13.6268 9.02439C13.4497 9.05447 13.3093 9.18482 13.2659 9.35528C13.1388 9.84661 12.945 10.3179 12.6843 10.7557C12.594 10.9095 12.6007 11.1 12.7043 11.2471L13.5299 12.4102C13.5533 12.4436 13.55 12.4938 13.5199 12.5238L12.5238 13.5199C12.5005 13.5433 12.4771 13.5466 12.4603 13.5466C12.4403 13.5466 12.4236 13.5399 12.4102 13.5299L11.2504 12.7043C11.1067 12.6007 10.9128 12.594 10.7591 12.6843C10.3212 12.945 9.84996 13.1388 9.35863 13.2659C9.18482 13.3093 9.05447 13.453 9.02773 13.6268L8.79043 15.0306C8.78374 15.0741 8.74697 15.1042 8.70352 15.1042H7.29639C7.25294 15.1042 7.21617 15.0741 7.20949 15.0306L6.97552 13.6268C6.94544 13.4497 6.81509 13.3093 6.64463 13.2659C6.16667 13.1422 5.70542 12.9517 5.27426 12.7043C5.20407 12.6642 5.12385 12.6442 5.04697 12.6442C4.95673 12.6442 4.86314 12.6709 4.78627 12.7277L3.61644 13.56C3.59973 13.57 3.58302 13.5767 3.56631 13.5767C3.55294 13.5767 3.5262 13.5734 3.5028 13.55L2.50678 12.5539C2.47669 12.5238 2.47335 12.4771 2.49675 12.4403L3.31897 11.2872C3.42258 11.1401 3.42927 10.9463 3.33902 10.7925C3.07832 10.358 2.87778 9.88672 2.75077 9.39539C2.70398 9.22493 2.5636 9.09458 2.38979 9.0645L0.975971 8.82385C0.93252 8.81716 0.902439 8.7804 0.902439 8.73695V7.32981C0.902439 7.28636 0.93252 7.24959 0.975971 7.24291L2.36974 7.00894C2.54688 6.97886 2.69061 6.84851 2.73406 6.67471C2.85772 6.18338 3.04824 5.70876 3.3056 5.27091C3.39584 5.11716 3.38582 4.92665 3.2822 4.78293L2.44995 3.6131C2.42656 3.57967 2.4299 3.52954 2.45998 3.49946L3.45601 2.50343C3.4794 2.48004 3.5028 2.47669 3.51951 2.47669C3.53957 2.47669 3.55628 2.48338 3.56965 2.49341L4.72276 3.31563C4.86983 3.41924 5.06369 3.42593 5.21743 3.33568C5.65194 3.07498 6.12322 2.87444 6.61454 2.74743C6.785 2.70063 6.91536 2.56025 6.94544 2.38645L7.18609 0.972629C7.19277 0.929178 7.22954 0.899097 7.27299 0.899097H8.68013C8.72358 0.899097 8.76034 0.929178 8.76703 0.972629L9.00099 2.3664C9.03108 2.54354 9.16143 2.68726 9.33523 2.73071C9.83993 2.85772 10.3212 3.05492 10.7691 3.31897C10.9229 3.40921 11.1134 3.40253 11.2604 3.29892L12.4136 2.47001C12.4303 2.45998 12.447 2.4533 12.4637 2.4533C12.4771 2.4533 12.5038 2.45664 12.5272 2.48004L13.5232 3.47606C13.5533 3.50614 13.5566 3.55294 13.5332 3.5897L12.7077 4.7495C12.6041 4.89322 12.5974 5.08708 12.6876 5.24083C12.9483 5.67868 13.1422 6.14996 13.2692 6.64128C13.3126 6.81509 13.4564 6.94544 13.6302 6.97218L15.034 7.20949C15.0774 7.21617 15.1075 7.25294 15.1075 7.29639V8.70352H15.1042Z"
          fill="currentColor"
        />
        <path
          d="M8.00161 4.54565C6.09647 4.54565 4.54895 6.09317 4.54895 7.99832C4.54895 9.90347 6.09647 11.451 8.00161 11.451C9.90676 11.451 11.4543 9.90347 11.4543 7.99832C11.4543 6.09317 9.90676 4.54565 8.00161 4.54565ZM8.00161 10.5485C6.59448 10.5485 5.45139 9.40546 5.45139 7.99832C5.45139 6.59118 6.59448 5.44809 8.00161 5.44809C9.40875 5.44809 10.5518 6.59118 10.5518 7.99832C10.5518 9.40546 9.40875 10.5485 8.00161 10.5485Z"
          fill="currentColor"
        />
      </g>
      <defs>
        <clipPath id="clip-icon-gear">
          <rect width="16" height="16" fill="white"/>
        </clipPath>
      </defs>
    </symbol>

    <symbol id="icon-grid-layout" viewBox="0 0 16 16">
      <path
        d="M12 0.5H14C14.8284 0.5 15.5 1.17157 15.5 2V5C15.5 5.82843 14.8284 6.5 14 6.5H12C11.1716 6.5 10.5 5.82843 10.5 5V2C10.5 1.17157 11.1716 0.5 12 0.5ZM12 9.5H14C14.8284 9.5 15.5 10.1716 15.5 11V14C15.5 14.8284 14.8284 15.5 14 15.5H12C11.1716 15.5 10.5 14.8284 10.5 14V11C10.5 10.1716 11.1716 9.5 12 9.5ZM2 0.5H6C6.82843 0.5 7.5 1.17157 7.5 2V14C7.5 14.8284 6.82843 15.5 6 15.5H2C1.17157 15.5 0.5 14.8284 0.5 14V2C0.5 1.17157 1.17157 0.5 2 0.5Z"
        stroke="currentColor"
      />
    </symbol>

    <symbol id="icon-grip-vertical" viewBox="0 0 16 16">
      <path
        d="M5.5 4C6.32843 4 7 3.32843 7 2.5C7 1.67157 6.32843 1 5.5 1C4.67157 1 4 1.67157 4 2.5C4 3.32843 4.67157 4 5.5 4Z"
        fill="currentColor"
      />
      <path
        d="M5.5 9.5C6.32843 9.5 7 8.82843 7 8C7 7.17157 6.32843 6.5 5.5 6.5C4.67157 6.5 4 7.17157 4 8C4 8.82843 4.67157 9.5 5.5 9.5Z"
        fill="currentColor"
      />
      <path
        d="M5.5 15C6.32843 15 7 14.3284 7 13.5C7 12.6716 6.32843 12 5.5 12C4.67157 12 4 12.6716 4 13.5C4 14.3284 4.67157 15 5.5 15Z"
        fill="currentColor"
      />
      <path
        d="M10.5 4C11.3284 4 12 3.32843 12 2.5C12 1.67157 11.3284 1 10.5 1C9.67157 1 9 1.67157 9 2.5C9 3.32843 9.67157 4 10.5 4Z"
        fill="currentColor"
      />
      <path
        d="M10.5 9.5C11.3284 9.5 12 8.82843 12 8C12 7.17157 11.3284 6.5 10.5 6.5C9.67157 6.5 9 7.17157 9 8C9 8.82843 9.67157 9.5 10.5 9.5Z"
        fill="currentColor"
      />
      <path
        d="M10.5 15C11.3284 15 12 14.3284 12 13.5C12 12.6716 11.3284 12 10.5 12C9.67157 12 9 12.6716 9 13.5C9 14.3284 9.67157 15 10.5 15Z"
        fill="currentColor"
      />
    </symbol>

    <symbol id="icon-json-schema" viewBox="0 0 16 18">
      <path
        d="M3.79575 17.5554C2.68928 17.315 1.85821 16.6663 1.56886 15.8171C1.36714 15.225 1.39586 14.265 1.65413 12.967C1.77811 12.3439 1.87949 11.6001 1.87941 11.3141C1.87916 10.3638 1.44207 9.84817 0.57584 9.77633L0.0761719 9.7349V9.12334V8.51178L0.549559 8.44767C1.24029 8.35411 1.50662 8.18482 1.71925 7.70414C1.87547 7.35097 1.89531 7.1754 1.84846 6.56088C1.81801 6.16158 1.71164 5.4494 1.61209 4.97827C1.35916 3.78134 1.36972 2.80941 1.64201 2.22468C2.04295 1.36367 3.03171 0.728269 4.18073 0.593224L4.67479 0.535156V1.17875V1.82235H4.34259C3.8897 1.82235 3.25637 2.14502 3.09437 2.45829C2.93898 2.75879 2.9272 3.19036 3.0539 3.94132C3.25415 5.12819 3.32153 6.26684 3.22667 6.86066C3.11813 7.54008 2.72192 8.34219 2.2863 8.76441L1.98466 9.05677L2.39744 9.56355C2.90621 10.1882 3.10407 10.624 3.22631 11.3892C3.32301 11.9945 3.24788 13.2506 3.05487 14.2554C2.78558 15.6574 3.09636 16.2111 4.24649 16.3785L4.67479 16.4408V17.0664C4.67479 17.7801 4.71846 17.7558 3.79575 17.5554Z"
        fill="currentColor"
      />
      <path
        d="M11.2676 17.0588V16.4377L11.7915 16.3295C12.3698 16.21 12.8277 15.8532 12.931 15.4413C12.9636 15.3116 12.9022 14.6326 12.7947 13.9325C12.4441 11.6502 12.6384 10.4725 13.5244 9.51134L13.9033 9.10029L13.6193 8.77693C12.6024 7.61874 12.426 6.59101 12.8133 4.08172C13.0084 2.81746 13.0086 2.80519 12.8355 2.50376C12.6318 2.14892 11.9962 1.79422 11.5641 1.79422H11.2676V1.16303C11.2676 0.444535 11.2527 0.454046 12.0972 0.633235C13.1105 0.848238 13.8364 1.36252 14.213 2.13226C14.4291 2.57394 14.4617 2.74572 14.4556 3.41303C14.4518 3.83689 14.3642 4.60975 14.261 5.13047C13.878 7.06371 13.9121 7.57812 14.4567 8.07823C14.7095 8.31042 14.8759 8.37798 15.3181 8.42801L15.8662 8.49002V9.10956V9.7291L15.4379 9.72928C14.8879 9.72946 14.4328 9.96168 14.2012 10.3603C13.9578 10.779 13.9731 11.6912 14.2455 13.0203C14.4772 14.1505 14.5146 15.1823 14.3448 15.7625C14.1657 16.3745 13.3684 17.1162 12.6201 17.367C12.2978 17.475 11.8616 17.5896 11.6508 17.6216L11.2676 17.6798L11.2676 17.0588Z"
        fill="currentColor"
      />
      <path
        d="M6.03175 16.0407C5.77062 15.7087 5.80863 15.1367 6.1291 14.5756C6.36623 14.1604 7.35817 12.7996 8.07436 11.9069L8.36343 11.5466L7.90281 10.2111C7.38613 8.71298 7.38911 8.68398 8.07043 8.58236L8.44573 8.52638L8.86511 9.38279C9.09577 9.85381 9.31747 10.2392 9.35779 10.2392C9.3981 10.2392 9.81145 9.79052 10.2763 9.24213C11.0838 8.2896 11.1343 8.24744 11.4076 8.29812C11.5726 8.32873 11.719 8.31001 11.7537 8.25386C11.8351 8.12228 12.0683 8.31701 12.0683 8.51648C12.0683 8.59829 11.9522 8.80635 11.8102 8.97883C11.2306 9.68312 9.99444 11.3486 9.99444 11.4252C9.99444 11.4704 10.2437 12.0522 10.5482 12.7181L11.1021 13.9287L10.9338 14.1804C10.8413 14.3188 10.7645 14.4682 10.7632 14.5124C10.7619 14.5566 10.6922 14.636 10.6084 14.6889C10.3958 14.823 10.2386 14.6594 9.58868 13.6274C9.29112 13.1549 9.01828 12.7674 8.98237 12.7661C8.90234 12.7634 8.01337 14.0779 7.32621 15.2149C6.72021 16.2177 6.83064 16.0892 6.49139 16.1865C6.24721 16.2565 6.18634 16.2372 6.03175 16.0407Z"
        fill="currentColor"
      />
      <path
        d="M6.09439 9.7567C5.54448 8.77337 4.55613 7.34685 4.15736 6.96094C3.9548 6.7649 3.78906 6.55839 3.78906 6.50202C3.78906 6.34826 4.20235 6.19026 4.60457 6.19026C5.03863 6.19026 5.49813 6.56797 5.90804 7.26173C6.05682 7.51353 6.20361 7.72036 6.23425 7.72134C6.26489 7.72236 6.44096 7.29931 6.62552 6.78131C7.02077 5.67192 8.06287 3.51529 8.47209 2.95981C8.82292 2.4836 9.34862 2.22749 9.98081 2.2248C10.8074 2.22129 10.8096 2.25804 10.0331 3.06742C8.8482 4.30255 8.30448 5.31914 7.15728 8.44448C6.83871 9.31236 6.54632 10.1005 6.50752 10.1959C6.44867 10.3405 6.38015 10.2677 6.09439 9.7567Z"
        fill="currentColor"
      />
    </symbol>

    <symbol id="icon-list-ul" viewBox="0 0 16 13">
      <path
        d="M16 12.5H4V10.5H16V12.5ZM2 12.5H0V10.5H2V12.5ZM16 7.5H4V5.5H16V7.5ZM2 7.5H0V5.5H2V7.5ZM16 2.5H4.023V0.5H16V2.5ZM2 2.5H0V0.5H2V2.5Z"
        fill="currentColor"
      />
    </symbol>

    <symbol id="icon-panel-layout-left" viewBox="0 0 16 16">
      <path
        d="M2.19412 16C1.72353 16 1.32353 15.8353 0.994118 15.5059C0.664706 15.1765 0.5 14.7765 0.5 14.3059V1.69412C0.5 1.22353 0.664706 0.823529 0.994118 0.494118C1.32353 0.164706 1.72353 0 2.19412 0H14.8059C15.2765 0 15.6765 0.164706 16.0059 0.494118C16.3353 0.823529 16.5 1.22353 16.5 1.69412V14.3059C16.5 14.7765 16.3353 15.1765 16.0059 15.5059C15.6765 15.8353 15.2765 16 14.8059 16H2.19412ZM4.73529 14.5882V1.41176H2.19412C2.13137 1.41176 2.06863 1.44314 2.00588 1.50588C1.94314 1.56863 1.91176 1.63137 1.91176 1.69412V14.3059C1.91176 14.3686 1.94314 14.4314 2.00588 14.4941C2.06863 14.5569 2.13137 14.5882 2.19412 14.5882H4.73529ZM6.14706 14.5882H14.8059C14.8686 14.5882 14.9314 14.5569 14.9941 14.4941C15.0569 14.4314 15.0882 14.3686 15.0882 14.3059V1.69412C15.0882 1.63137 15.0569 1.56863 14.9941 1.50588C14.9314 1.44314 14.8686 1.41176 14.8059 1.41176H6.14706V14.5882Z"
        fill="currentColor"
      />
    </symbol>

    <symbol id="icon-panel-layout-right" viewBox="0 0 16 16">
      <path
        d="M14.3059 16C14.7765 16 15.1765 15.8353 15.5059 15.5059C15.8353 15.1765 16 14.7765 16 14.3059V1.69412C16 1.22353 15.8353 0.823529 15.5059 0.494118C15.1765 0.164706 14.7765 0 14.3059 0H1.69412C1.22353 0 0.823529 0.164706 0.494117 0.494118C0.164705 0.823529 0 1.22353 0 1.69412V14.3059C0 14.7765 0.164705 15.1765 0.494117 15.5059C0.823529 15.8353 1.22353 16 1.69412 16H14.3059ZM11.7647 14.5882V1.41176H14.3059C14.3686 1.41176 14.4314 1.44314 14.4941 1.50588C14.5569 1.56863 14.5882 1.63137 14.5882 1.69412V14.3059C14.5882 14.3686 14.5569 14.4314 14.4941 14.4941C14.4314 14.5569 14.3686 14.5882 14.3059 14.5882H11.7647ZM10.3529 14.5882H1.69412C1.63137 14.5882 1.56863 14.5569 1.50588 14.4941C1.44314 14.4314 1.41177 14.3686 1.41177 14.3059V1.69412C1.41177 1.63137 1.44314 1.56863 1.50588 1.50588C1.56863 1.44314 1.63137 1.41176 1.69412 1.41176H10.3529V14.5882Z"
        fill="currentColor"
      />
    </symbol>

    <symbol id="icon-panel-layout-left-solid" viewBox="0 0 16 16">
      <path
        d="M1.69412 16C1.22353 16 0.82353 15.8353 0.494118 15.5059C0.164706 15.1765 0 14.7765 0 14.3059V1.69412C0 1.22353 0.164706 0.82353 0.494118 0.494118C0.82353 0.164706 1.22353 0 1.69412 0H14.3059C14.7765 0 15.1765 0.164706 15.5059 0.494118C15.8353 0.82353 16 1.22353 16 1.69412V14.3059C16 14.7765 15.8353 15.1765 15.5059 15.5059C15.1765 15.8353 14.7765 16 14.3059 16H1.69412ZM5.64706 14.5882H14.3059C14.3686 14.5882 14.4314 14.5569 14.4941 14.4941C14.5569 14.4314 14.5882 14.3686 14.5882 14.3059V1.69412C14.5882 1.63137 14.5569 1.56863 14.4941 1.50588C14.4314 1.44314 14.3686 1.41176 14.3059 1.41176H5.64706V14.5882Z"
        fill="currentColor"
      />
    </symbol>

    <symbol id="icon-panel-layout-right-solid" viewBox="0 0 16 16">
      <path
        d="M14.3059 16C14.7765 16 15.1765 15.8353 15.5059 15.5059C15.8353 15.1765 16 14.7765 16 14.3059V1.69412C16 1.22353 15.8353 0.82353 15.5059 0.494118C15.1765 0.164706 14.7765 0 14.3059 0H1.69412C1.22353 0 0.823529 0.164706 0.494117 0.494118C0.164705 0.82353 0 1.22353 0 1.69412V14.3059C0 14.7765 0.164705 15.1765 0.494117 15.5059C0.823529 15.8353 1.22353 16 1.69412 16H14.3059ZM10.3529 14.5882H1.69412C1.63137 14.5882 1.56863 14.5569 1.50588 14.4941C1.44314 14.4314 1.41177 14.3686 1.41177 14.3059V1.69412C1.41177 1.63137 1.44314 1.56863 1.50588 1.50588C1.56863 1.44314 1.63137 1.41176 1.69412 1.41176H10.3529V14.5882Z"
        fill="currentColor"
      />
    </symbol>

    <symbol id="icon-play" viewBox="0 0 16 16">
      <path
        d="M5.01251 13.1264C4.68843 13.3446 4.35533 13.3571 4.0132 13.164C3.67107 12.9701 3.5 12.6797 3.5 12.2927V3.50702C3.5 3.12005 3.67107 2.82962 4.0132 2.63573C4.35533 2.44264 4.68843 2.45557 5.01251 2.6745L12.0126 7.09158C12.3375 7.2774 12.5 7.54682 12.5 7.89987C12.5 8.25372 12.3375 8.52315 12.0126 8.70815L5.01251 13.1264Z"
        fill="currentColor"
      />
    </symbol>

    <symbol id="icon-plus" viewBox="0 0 16 16">
      <path
        d="M8 14C7.80741 14 7.6483 13.9372 7.52267 13.8116C7.39644 13.6853 7.33333 13.5259 7.33333 13.3333V8.66667H2.66667C2.47407 8.66667 2.31496 8.60356 2.18933 8.47733C2.06311 8.3517 2 8.19259 2 8C2 7.80741 2.06311 7.648 2.18933 7.52178C2.31496 7.39615 2.47407 7.33333 2.66667 7.33333H7.33333V2.66667C7.33333 2.47407 7.39644 2.31496 7.52267 2.18933C7.6483 2.06311 7.80741 2 8 2C8.19259 2 8.352 2.06311 8.47822 2.18933C8.60385 2.31496 8.66667 2.47407 8.66667 2.66667V7.33333H13.3333C13.5259 7.33333 13.6853 7.39615 13.8116 7.52178C13.9372 7.648 14 7.80741 14 8C14 8.19259 13.9372 8.3517 13.8116 8.47733C13.6853 8.60356 13.5259 8.66667 13.3333 8.66667H8.66667V13.3333C8.66667 13.5259 8.60385 13.6853 8.47822 13.8116C8.352 13.9372 8.19259 14 8 14Z"
        fill="currentColor"
      />
    </symbol>

    <symbol id="icon-rotate-right" viewBox="0 0 16 16">
      <g clip-path="url(#clip-icon-rotate-right)">
        <path
          d="M8.05369 16C5.79866 16 3.89262 15.2267 2.33557 13.68C0.778523 12.1333 0 10.24 0 8C0 5.76 0.778523 3.86667 2.33557 2.32C3.89262 0.773334 5.79866 0 8.05369 0C9.30649 0 10.4923 0.275556 11.6113 0.826667C12.7295 1.37778 13.6555 2.16 14.3893 3.17333V0.8C14.3893 0.568889 14.4698 0.377955 14.6309 0.2272C14.7919 0.0757331 14.9799 0 15.1946 0C15.4273 0 15.6199 0.0757331 15.7723 0.2272C15.9241 0.377955 16 0.568889 16 0.8V5.54667C16 5.83111 15.9105 6.06684 15.7315 6.25387C15.5526 6.44018 15.3199 6.53333 15.0336 6.53333H10.255C10.0224 6.53333 9.8298 6.45333 9.67732 6.29333C9.52555 6.13333 9.44966 5.94667 9.44966 5.73333C9.44966 5.50222 9.52555 5.31093 9.67732 5.15947C9.8298 5.00871 10.0224 4.93333 10.255 4.93333H13.6913C13.1186 3.90222 12.3311 3.08907 11.3289 2.49387C10.3266 1.89796 9.2349 1.6 8.05369 1.6C6.26398 1.6 4.74273 2.22222 3.48993 3.46667C2.23714 4.71111 1.61074 6.22222 1.61074 8C1.61074 9.77778 2.23714 11.2889 3.48993 12.5333C4.74273 13.7778 6.26398 14.4 8.05369 14.4C9.32438 14.4 10.492 14.0622 11.5565 13.3867C12.6217 12.7111 13.4049 11.7956 13.906 10.64C13.9597 10.4978 14.0628 10.3776 14.2153 10.2795C14.3671 10.182 14.5235 10.1333 14.6846 10.1333C14.9888 10.1333 15.2215 10.24 15.3826 10.4533C15.5436 10.6667 15.5615 10.9067 15.4362 11.1733C14.8098 12.6311 13.8302 13.7998 12.4972 14.6795C11.1635 15.5598 9.68233 16 8.05369 16Z"
          fill="currentColor"
        />
      </g>
      <defs>
        <clipPath id="clip-icon-rotate-right">
          <rect width="16" height="16" fill="white" />
        </clipPath>
      </defs>
    </symbol>

    <symbol id="icon-square" viewBox="0 0 16 16">
      <path
        d="M3.33333 0C2.44928 0 1.60143 0.351189 0.976311 0.976311C0.351189 1.60143 0 2.44928 0 3.33333V12.6667C0 13.5507 0.351189 14.3986 0.976311 15.0237C1.60143 15.6488 2.44928 16 3.33333 16H12.6667C13.5507 16 14.3986 15.6488 15.0237 15.0237C15.6488 14.3986 16 13.5507 16 12.6667V3.33333C16 2.44928 15.6488 1.60143 15.0237 0.976311C14.3986 0.351189 13.5507 0 12.6667 0H3.33333ZM1.33333 3.33333C1.33333 2.8029 1.54405 2.29419 1.91912 1.91912C2.29419 1.54405 2.8029 1.33333 3.33333 1.33333H12.6667C13.1971 1.33333 13.7058 1.54405 14.0809 1.91912C14.456 2.29419 14.6667 2.8029 14.6667 3.33333V12.6667C14.6667 13.1971 14.456 13.7058 14.0809 14.0809C13.7058 14.456 13.1971 14.6667 12.6667 14.6667H3.33333C2.8029 14.6667 2.29419 14.456 1.91912 14.0809C1.54405 13.7058 1.33333 13.1971 1.33333 12.6667V3.33333Z"
        fill="currentColor"
      />
    </symbol>

    <symbol id="icon-square-check" viewBox="0 0 16 16">
      <path
        d="M3.33333 0C2.44928 0 1.60143 0.351189 0.976311 0.976311C0.351189 1.60143 0 2.44928 0 3.33333V12.6667C0 13.5507 0.351189 14.3986 0.976311 15.0237C1.60143 15.6488 2.44928 16 3.33333 16H12.6667C13.5507 16 14.3986 15.6488 15.0237 15.0237C15.6488 14.3986 16 13.5507 16 12.6667V3.33333C16 2.44928 15.6488 1.60143 15.0237 0.976311C14.3986 0.351189 13.5507 0 12.6667 0H3.33333ZM11.8053 6.472L7.13867 11.1387C7.07674 11.2008 7.00317 11.25 6.92218 11.2836C6.84118 11.3172 6.75436 11.3345 6.66667 11.3345C6.57898 11.3345 6.49215 11.3172 6.41116 11.2836C6.33016 11.25 6.25659 11.2008 6.19467 11.1387L4.19467 9.13867C4.13268 9.07668 4.08351 9.0031 4.04997 8.92211C4.01642 8.84113 3.99916 8.75433 3.99916 8.66667C3.99916 8.57901 4.01642 8.49221 4.04997 8.41122C4.08351 8.33024 4.13268 8.25665 4.19467 8.19467C4.31985 8.06948 4.48963 7.99916 4.66667 7.99916C4.75433 7.99916 4.84113 8.01642 4.92211 8.04997C5.0031 8.08351 5.07668 8.13268 5.13867 8.19467L6.66667 9.724L10.8613 5.528C10.9865 5.40282 11.1563 5.33249 11.3333 5.33249C11.5104 5.33249 11.6802 5.40282 11.8053 5.528C11.9305 5.65318 12.0008 5.82297 12.0008 6C12.0008 6.17703 11.9305 6.34682 11.8053 6.472Z"
        fill="var(--icon-active)"
      />
    </symbol>

    <symbol id="icon-trash-can" viewBox="0 0 16 16">
      <path
        d="M14.2854 3.42843H10.8569C10.8569 2.67067 10.5558 1.94395 10.02 1.40813C9.48421 0.872309 8.75748 0.571289 7.99972 0.571289C7.24196 0.571289 6.51523 0.872309 5.97942 1.40813C5.4436 1.94395 5.14258 2.67067 5.14258 3.42843H1.71401C1.56245 3.42843 1.41711 3.48864 1.30995 3.5958C1.20278 3.70296 1.14258 3.84831 1.14258 3.99986C1.14258 4.15141 1.20278 4.29676 1.30995 4.40392C1.41711 4.51109 1.56245 4.57129 1.71401 4.57129H2.28544V12.2764C2.28649 13.2636 2.67912 14.2101 3.37717 14.9081C4.07522 15.6062 5.02167 15.9988 6.00886 15.9999H9.99058C10.9778 15.9988 11.9242 15.6062 12.6223 14.9081C13.3203 14.2101 13.7129 13.2636 13.714 12.2764V4.57129H14.2854C14.437 4.57129 14.5823 4.51109 14.6895 4.40392C14.7967 4.29676 14.8569 4.15141 14.8569 3.99986C14.8569 3.84831 14.7967 3.70296 14.6895 3.5958C14.5823 3.48864 14.437 3.42843 14.2854 3.42843ZM7.99972 1.71415C8.45438 1.71415 8.89041 1.89476 9.21191 2.21625C9.5334 2.53774 9.71401 2.97378 9.71401 3.42843H6.28544C6.28544 2.97378 6.46605 2.53774 6.78754 2.21625C7.10903 1.89476 7.54506 1.71415 7.99972 1.71415ZM12.5712 12.2764C12.5704 12.9606 12.2983 13.6165 11.8145 14.1003C11.3307 14.5841 10.6748 14.8562 9.99058 14.857H6.00886C5.32469 14.8562 4.66875 14.5841 4.18496 14.1003C3.70117 13.6165 3.42905 12.9606 3.42829 12.2764V4.57129H12.5712V12.2764Z"
        fill="currentColor"
      />
      <path
        d="M6.2853 11.9998C6.43685 11.9998 6.58219 11.9396 6.68936 11.8324C6.79652 11.7253 6.85672 11.5799 6.85672 11.4284V7.42836C6.85672 7.27681 6.79652 7.13146 6.68936 7.0243C6.58219 6.91714 6.43685 6.85693 6.2853 6.85693C6.13374 6.85693 5.9884 6.91714 5.88123 7.0243C5.77407 7.13146 5.71387 7.27681 5.71387 7.42836V11.4284C5.71387 11.5799 5.77407 11.7253 5.88123 11.8324C5.9884 11.9396 6.13374 11.9998 6.2853 11.9998Z"
        fill="currentColor"
      />
      <path
        d="M9.71401 11.9999C9.86556 11.9999 10.0109 11.9397 10.1181 11.8325C10.2252 11.7254 10.2854 11.58 10.2854 11.4285V7.42848C10.2854 7.27693 10.2252 7.13159 10.1181 7.02442C10.0109 6.91726 9.86556 6.85706 9.71401 6.85706C9.56245 6.85706 9.41711 6.91726 9.30995 7.02442C9.20278 7.13159 9.14258 7.27693 9.14258 7.42848V11.4285C9.14258 11.58 9.20278 11.7254 9.30995 11.8325C9.41711 11.9397 9.56245 11.9999 9.71401 11.9999Z"
        fill="currentColor"
      />
    </symbol>

    <symbol id="icon-x" viewBox="0 0 16 16">
      <path
        d="M8.00002 8.7504L4.66642 12.0832C4.56669 12.1835 4.44722 12.2336 4.30802 12.2336C4.16935 12.2336 4.04455 12.1779 3.93362 12.0664C3.82215 11.9555 3.76642 11.8307 3.76642 11.692C3.76642 11.5528 3.82215 11.4277 3.93362 11.3168L7.24962 8L3.91682 4.6664C3.81655 4.56666 3.76642 4.44453 3.76642 4.3C3.76642 4.15546 3.82215 4.02773 3.93362 3.9168C4.04455 3.80586 4.16935 3.7504 4.30802 3.7504C4.44722 3.7504 4.57229 3.80586 4.68322 3.9168L8.00002 7.2496L11.3336 3.9168C11.4334 3.81653 11.5555 3.76373 11.7 3.7584C11.8446 3.75306 11.9723 3.80586 12.0832 3.9168C12.1942 4.02773 12.2496 4.1528 12.2496 4.292C12.2496 4.43066 12.1942 4.55546 12.0832 4.6664L8.75042 8L12.0832 11.3336C12.1835 11.4333 12.2363 11.5528 12.2416 11.692C12.247 11.8307 12.1942 11.9555 12.0832 12.0664C11.9723 12.1779 11.8472 12.2336 11.708 12.2336C11.5694 12.2336 11.4446 12.1779 11.3336 12.0664L8.00002 8.7504Z"
        fill="currentColor"
      />
    </symbol>

    <symbol id="icon-arrow-up" viewBox="0 0 16 16">
      <path
        fill-rule="evenodd"
        clip-rule="evenodd"
        d="M8 0C12.4183 0 16 3.58172 16 8C16 12.4183 12.4183 16 8 16C3.58172 16 0 12.4183 0 8C0 3.58172 3.58172 0 8 0ZM8.51514 4.98486C8.36869 4.83842 8.13131 4.83842 7.98486 4.98486L5.59839 7.37134C5.45194 7.51778 5.45194 7.75516 5.59839 7.90161C5.74484 8.04806 5.98222 8.04806 6.12866 7.90161L7.875 6.15527V10.75C7.875 10.9571 8.04289 11.125 8.25 11.125C8.45711 11.125 8.625 10.9571 8.625 10.75V6.15527L10.3713 7.90161C10.5178 8.04806 10.7552 8.04806 10.9016 7.90161C11.0481 7.75516 11.0481 7.51778 10.9016 7.37134L8.51514 4.98486Z"
        fill="currentColor"
      />
    </symbol>

    <symbol id="icon-arrow-turn-down-left" viewBox="0 0 16 13">
      <path
        d="M0.502335 7.19799C0.227483 7.47284 0.227483 7.91846 0.502335 8.19332L4.98132 12.6723C5.25617 12.9472 5.7018 12.9472 5.97665 12.6723C6.2515 12.3974 6.2515 11.9518 5.97665 11.677L1.99533 7.69565L5.97665 3.71433C6.2515 3.43948 6.2515 2.99386 5.97665 2.719C5.7018 2.44415 5.25617 2.44415 4.98132 2.719L0.502335 7.19799ZM9.75 0.296196C9.3613 0.296196 9.0462 0.6113 9.0462 1C9.0462 1.3887 9.3613 1.7038 9.75 1.7038V0.296196ZM1 7.69565V8.39946H13.4783V7.69565V6.99185H1V7.69565ZM13.4783 1V0.296196H9.75V1V1.7038H13.4783V1ZM15 6.17391H15.7038V4.34783H15H14.2962V6.17391H15ZM15 4.34783H15.7038V2.52174H15H14.2962V4.34783H15ZM13.4783 1V1.7038C13.93 1.7038 14.2962 2.07001 14.2962 2.52174H15H15.7038C15.7038 1.29261 14.7074 0.296196 13.4783 0.296196V1ZM13.4783 7.69565V8.39946C14.7074 8.39946 15.7038 7.40305 15.7038 6.17391H15H14.2962C14.2962 6.62565 13.93 6.99185 13.4783 6.99185V7.69565Z"
        fill="currentColor"
      />
    </symbol>

    <symbol id="icon-arrows-left-right" viewBox="0 0 16 16">
      <path
        d="M3.5 7H12.5V9H3.5V7Z"
        fill="currentColor"
      />
      <path
        d="M4.5 4L1.5 8L4.5 12L5.5 11L3.8 8L5.5 5L4.5 4Z"
        fill="currentColor"
      />
      <path
        d="M11.5 4L14.5 8L11.5 12L10.5 11L12.2 8L10.5 5L11.5 4Z"
        fill="currentColor"
      />
    </symbol>
  </defs>
</svg>
